<svg xmlns="http://www.w3.org/2000/svg" viewBox="0 0 512 512" width="512" height="512">
	<style>
		tspan { white-space:pre }
		.shp0 { fill: #ffffff } 
		.shp1 { fill: #0084ff } 
		.shp2 { fill: #10bafc } 
		.shp3 { fill: #000000 } 
	</style>
	<path id="Layer" class="shp0" d="M185.8 105.69L462.86 105.69C484.23 105.69 501.55 123.01 501.55 144.38L501.55 462.86C501.55 484.23 484.23 501.55 462.86 501.55L280.48 501.55L185.8 105.69Z" />
	<path id="Layer" class="shp1" d="M361.15 406.31L280.48 501.55L248.79 406.31L361.15 406.31Z" />
	<path id="Layer" class="shp2" d="M361.15 406.31L49.14 406.31C27.77 406.31 10.45 388.99 10.45 367.62L10.45 49.14C10.45 27.77 27.77 10.45 49.14 10.45L231.52 10.45L361.15 406.31Z" />
	<path id="Layer" fill-rule="evenodd" class="shp3" d="M512 144.38L512 462.86C512 489.96 489.96 512 462.86 512L280.48 512C275.98 512 271.98 509.12 270.56 504.85L241.25 416.75L49.14 416.75C22.04 416.75 0 394.71 0 367.62L0 49.14C0 22.04 22.04 0 49.14 0L231.52 0C236.04 0 240.05 2.9 241.46 7.2L270.29 95.24L462.86 95.24C489.96 95.24 512 117.28 512 144.38ZM49.14 395.86L346.73 395.86L223.95 20.9L49.14 20.9C33.57 20.9 20.9 33.57 20.9 49.14L20.9 367.62C20.9 383.19 33.57 395.86 49.14 395.86ZM491.1 462.86L491.1 462.86L491.1 144.38C491.1 128.81 478.43 116.14 462.86 116.14L277.13 116.14L311.29 220.47L369.17 220.47L369.17 202.71C369.17 196.94 373.85 192.26 379.62 192.26C385.39 192.26 390.07 196.94 390.07 202.71L390.07 220.47L464.98 220.47C470.75 220.47 475.43 225.15 475.43 230.92C475.43 236.69 470.75 241.37 464.98 241.37L434.15 241.37C429.23 253.58 417.15 279.67 393.95 309.01C410.54 327.67 432.56 347.73 461.03 365.16C465.95 368.18 467.5 374.61 464.49 379.53C462.52 382.75 459.08 384.53 455.57 384.53C453.71 384.53 451.82 384.03 450.12 382.99C420.81 365.04 397.87 344.48 380.32 325.11C372.54 333.7 363.8 342.39 354.02 350.95L370.87 402.41C371.35 403.61 371.62 404.93 371.62 406.31C371.62 408.98 370.6 411.42 368.95 413.27L303.02 491.1L462.86 491.1C478.43 491.1 491.1 478.43 491.1 462.86L491.1 462.86ZM318.14 241.37L346.9 329.22C354.14 322.49 360.72 315.7 366.66 309C360.31 300.97 354.93 293.38 350.46 286.54C337.53 266.76 330.03 250.31 326.41 241.37L318.14 241.37ZM284.52 480.61L338.61 416.75L263.28 416.75L284.52 480.61ZM411.36 241.37L349.19 241.37C353.14 249.98 359.35 262.03 368.38 275.75C371.77 280.91 375.73 286.54 380.28 292.47C396.05 271.84 405.89 253.28 411.36 241.37Z" />
	<path id="ETT " fill="#000000" d="M75.6 105.67L153.67 105.11Q169.54 104.97 169.88 121.28Q170.21 134.22 154.35 134.22Q117.11 134.5 79.99 134.78L78.97 185.13L141.19 184.7Q157.05 184.56 157.39 200.73Q157.72 213.53 141.86 213.81L78.53 214.23L76.95 293.27L146.7 292.84Q162.56 292.7 162.9 308.88Q163.24 321.81 147.38 321.95L68.63 322.52Q67.28 322.52 66.15 322.23Q65.25 322.23 64.35 322.23Q54.22 321.95 54.56 307.89L58.27 117.63Q58.5 105.67 68.85 105.53Q71.21 105.53 73.01 105.95Q74.25 105.67 75.6 105.67ZM162.71 211.28L213.33 211.28Q219.43 211.28 219.52 218.17Q219.61 224.64 213.33 224.64L193.6 224.71L192.19 313.23Q192.1 320.41 187.08 320.27Q182.86 320.13 182.96 313.09L184.41 224.78Q173.35 224.85 162.29 224.85Q156.38 224.85 156.38 217.47Q156.38 211.28 162.71 211.28ZM227.96 211.28L278.58 211.28Q284.68 211.28 284.77 218.17Q284.86 224.64 278.58 224.64L258.85 224.71L257.44 313.23Q257.35 320.41 252.33 320.27Q248.11 320.13 248.21 313.09L249.66 224.78Q238.6 224.85 227.54 224.85Q221.63 224.85 221.63 217.47Q221.63 211.28 227.96 211.28Z" />
	<path id="Layer" class="shp3" d="M201.62 351.43L196.94 351.43C191.17 351.43 186.5 356.11 186.5 361.88C186.5 367.65 191.17 372.33 196.94 372.33L201.62 372.33C207.39 372.33 212.07 367.65 212.07 361.88C212.07 356.11 207.39 351.43 201.62 351.43Z" />
	<path id="Layer" class="shp3" d="M163.14 351.43L61.65 351.43C55.88 351.43 51.2 356.11 51.2 361.88C51.2 367.65 55.88 372.33 61.65 372.33L163.14 372.33C168.91 372.33 173.59 367.65 173.59 361.88C173.59 356.11 168.91 351.43 163.14 351.43Z" />
</svg>